<?xml version="1.0" encoding="utf-8"?>
<!-- Generator: Adobe Illustrator 22.1.0, SVG Export Plug-In . SVG Version: 6.00 Build 0)  -->
<svg version="1.1" id="图层_3" xmlns="http://www.w3.org/2000/svg" xmlns:xlink="http://www.w3.org/1999/xlink" x="0px" y="0px"
	 viewBox="0 0 171.5 100.7" style="enable-background:new 0 0 171.5 100.7;" xml:space="preserve">
<style type="text/css">
	.st0{fill:url(#Fill-1_2_);}
	.st1{fill:url(#路径-3_2_);}
	.st2{fill:url(#形状结合_1_);}
	.st3{fill:#C4C6CC;}
</style>
<g id="页面-1_1_">
	<g id="画板_1_" transform="translate(-264.000000, -328.000000)">
		<g id="内容为空" transform="translate(264.000000, 327.000000)">
			
				<linearGradient id="Fill-1_2_" gradientUnits="userSpaceOnUse" x1="256.942" y1="-90.8524" x2="256.942" y2="-89.6212" gradientTransform="matrix(163.086 0 0 28.8496 -41813.7148 2687.9297)">
				<stop  offset="0" style="stop-color:#FBFCFD"/>
				<stop  offset="1" style="stop-color:#F0F2F5"/>
			</linearGradient>
			<path id="Fill-1_1_" class="st0" d="M33,77.6c16.3-3.7,39.7-5.3,55.6-4.5s29.1,3.6,30,2.9c3.2-2.1,10-3,9.6-2.2
				c-0.3,0.8-4.7,3.4-3.3,3.8c1.4,0.4,15.6,2,21.5,3.3c5.9,1.2,9.7,2.4,11,2.4s3.3-1.7,11.8-0.9c0.2,0.3-1.9,0.4-3.8,1.4
				s-3.3,0.9-3.3,1.1s1.1-0.3,3.3,1.1c2.2,1.4,6.1,1.9,6.1,2.2s-4.9,2-13.2-0.6c-2.1-0.7-7,5.1-29.5,6.7
				c-22.5,1.6-60.5,2.9-60.5,2.9s2.3,2.9,5.6,3.8c0.2,0.3-1.3,1.4-7.8,0.2s-9.9-3.9-9.9-3.9s-12.8-0.8-17.6-1.6s-10.4-2.9-14.2-3.3
				C20.6,92,3.3,90,9.9,85.5C9.7,85.4,16.7,81.3,33,77.6z"/>
			
				<linearGradient id="路径-3_2_" gradientUnits="userSpaceOnUse" x1="256.1075" y1="-89.1532" x2="256.1075" y2="-88.2168" gradientTransform="matrix(105.6 0 0 56.3 -26959.9805 5035.2744)">
				<stop  offset="0" style="stop-color:#E6E8EB;stop-opacity:0.9917"/>
				<stop  offset="1" style="stop-color:#D4D6D9"/>
			</linearGradient>
			<polygon id="路径-3_1_" class="st1" points="32.2,50.5 55.7,15.3 114.3,15.3 137.8,50.5 137.8,71.6 32.2,71.6 			"/>
			
				<linearGradient id="形状结合_1_" gradientUnits="userSpaceOnUse" x1="256.1075" y1="-90.0966" x2="256.1075" y2="-89.1045" gradientTransform="matrix(105.6 0 0 35.2 -26959.9805 3221.8889)">
				<stop  offset="0" style="stop-color:#EDEFF2"/>
				<stop  offset="1" style="stop-color:#E8EAED"/>
			</linearGradient>
			<path id="形状结合_5_" class="st2" d="M57.6,85.7H34.2c-1.1,0-2-0.9-2-2V50.5h23.4c1.1,0,2,0.9,2,2v7.4c0,1.1,0.8,1.9,1.9,2
				h0.1h50.8c1.1,0,1.9-0.8,2-1.9v-0.1v-7.4c0-1.1,0.9-2,2-2h23.4v33.2c0,1.1-0.9,2-2,2h-23.4H57.6z"/>
			<polygon id="形状结合_4_" class="st3" points="27.4,82.5 27.4,90.5 35.4,90.5 35.4,92.1 25.8,92.1 25.8,82.5 			"/>
			<polygon id="形状结合备份_1_" class="st3" points="134.6,90.5 142.6,90.5 142.6,82.5 144.2,82.5 144.2,92.1 134.6,92.1 			
				"/>
			
				<g id="编组-4_1_" transform="translate(91.658457, 11.926342) rotate(21.000000) translate(-91.658457, -11.926342) translate(90.158457, -0.073658)">
				
					<rect id="矩形_1_" x="7.8" y="-0.5" transform="matrix(1.090938e-05 1 -1 1.090938e-05 9.6971 -9.1945)" class="st3" width="3.2" height="1.6"/>
				
					<rect id="矩形备份-6" x="7.8" y="5.9" transform="matrix(1.090938e-05 1 -1 1.090938e-05 16.0969 -2.7944)" class="st3" width="3.2" height="1.6"/>
				
					<rect id="矩形备份-7" x="7.8" y="12.3" transform="matrix(1.090938e-05 1 -1 1.090938e-05 22.4969 3.6053)" class="st3" width="3.2" height="1.6"/>
				
					<rect id="矩形备份-8" x="7.8" y="18.7" transform="matrix(1.090938e-05 1 -1 1.090938e-05 28.897 10.0052)" class="st3" width="3.2" height="1.6"/>
			</g>
			
				<g id="编组-3_1_" transform="translate(36.136004, 27.226952) rotate(-32.000000) translate(-36.136004, -27.226952) translate(34.636004, 12.726952)">
				
					<rect id="矩形_2_" x="7" y="5.1" transform="matrix(-1 1.075266e-05 -1.075266e-05 -1 15.6318 13.3853)" class="st3" width="1.6" height="3.2"/>
				
					<rect id="矩形备份-2" x="7" y="11.5" transform="matrix(-1 1.075266e-05 -1.075266e-05 -1 15.6326 26.1853)" class="st3" width="1.6" height="3.2"/>
				
					<rect id="矩形备份-3" x="7" y="17.9" transform="matrix(-1 1.075266e-05 -1.075266e-05 -1 15.6325 38.9857)" class="st3" width="1.6" height="3.2"/>
				
					<rect id="矩形备份-4" x="7" y="24.3" transform="matrix(-1 1.075266e-05 -1.075266e-05 -1 15.6323 51.7854)" class="st3" width="1.6" height="3.2"/>
				
					<rect id="矩形备份-5" x="7" y="30.7" transform="matrix(-1 1.075266e-05 -1.075266e-05 -1 15.6323 64.5853)" class="st3" width="1.6" height="3.2"/>
			</g>
			<circle id="椭圆形_1_" class="st3" cx="113.8" cy="7.3" r="1.6"/>
			<circle id="椭圆形备份_1_" class="st3" cx="72.2" cy="32.9" r="1.6"/>
		</g>
	</g>
</g>
</svg>
