<svg xmlns="http://www.w3.org/2000/svg" viewBox="0 0 440 200" class="design-iconfont">
  <defs>
    <linearGradient x1="51.9445544%" y1="48.7605571%" x2="52.6037065%" y2="51.2471476%" id="vc01gi4os__xu5bzhcfea">
      <stop stop-color="#E8EAED" stop-opacity=".2" offset="0%"/>
      <stop stop-color="#E8EAED" stop-opacity=".6" offset="100%"/>
    </linearGradient>
    <linearGradient x1="50.0012121%" y1="1.16976909%" x2="50.0012121%" y2="94.8097691%" id="vc01gi4os__56rv0rchgb">
      <stop stop-color="#E6E8EB" stop-opacity=".9917" offset="0%"/>
      <stop stop-color="#D4D6D9" offset="100%"/>
    </linearGradient>
    <linearGradient x1="50.0012121%" y1=".01153409%" x2="50.0012121%" y2="99.2215341%" id="vc01gi4os__ha186j0dec">
      <stop stop-color="#EDEFF2" offset="0%"/>
      <stop stop-color="#E8EAED" offset="100%"/>
    </linearGradient>
  </defs>
  <g fill="none" fill-rule="evenodd">
    <path d="M33.1660746,103.233526 C55.1544716,98.2422944 86.7206366,96.0839241 108.169441,97.1631092 C129.618245,98.2422944 147.4248,102.019442 148.638883,101.075155 C152.955624,98.2422944 162.128697,97.0282111 161.589105,98.1073962 C161.184411,99.1865814 155.248892,102.693933 157.137466,103.233526 C159.02604,103.773118 178.181576,105.931488 186.140567,107.685164 C194.099557,109.303942 199.225686,110.92272 200.979362,110.92272 C202.733038,110.92272 205.431001,108.629451 216.897343,109.708636 C217.167139,110.113331 214.334278,110.248229 211.771213,111.59721 C209.208149,112.946192 207.319575,112.811294 207.319575,113.08109 C207.319575,113.350886 208.803454,112.676395 211.771213,114.564969 C214.738972,116.453543 220,117.128034 220,117.532729 C220,117.937423 213.389991,120.230691 202.193445,116.72334 C199.360584,115.779053 192.750576,123.603145 162.398494,125.761515 C132.046412,127.919885 80.7851184,129.673561 80.7851184,129.673561 C80.7851184,129.673561 83.8877757,133.585607 88.3394143,134.799691 C88.6092106,135.204385 86.5857385,136.688265 77.8173593,135.069487 C69.0489802,133.450709 64.4624434,129.808459 64.4624434,129.808459 C64.4624434,129.808459 47.1954813,128.729274 40.7203705,127.650089 C34.2452598,126.570904 26.6909639,123.738043 21.5648345,123.19845 C16.4387052,122.658858 -6.89867324,119.960895 2.00460407,113.890479 C1.73480778,113.755581 11.1776777,108.224757 33.1660746,103.233526 Z" fill="url(#vc01gi4os__xu5bzhcfea)" transform="translate(114 36)"/>
    <path fill="url(#vc01gi4os__56rv0rchgb)" fill-rule="nonzero" d="M32.0868895 66.6761294L63.7879527 19.1919837 142.838263 19.1919837 174.539326 66.6761294 174.539326 95.1396371 32.0868895 95.1396371z" transform="translate(114 36)"/>
    <path d="M66.3510173,114.160275 L34.7848523,114.160275 C33.3009728,114.160275 32.0868895,112.946192 32.0868895,111.462312 L32.0868895,66.6761294 L63.6530545,66.6761294 C65.1369341,66.6761294 66.3510173,67.8902126 66.3510173,69.3740922 L66.3510173,79.3565546 C66.3510173,80.8404342 67.4302025,81.9196193 68.914082,82.0545174 L69.0489802,82.0545174 L137.577236,82.0545174 C139.061115,82.0545174 140.1403,80.9753323 140.275199,79.4914528 L140.275199,79.3565546 L140.275199,69.3740922 C140.275199,67.8902126 141.489282,66.6761294 142.973161,66.6761294 L174.539326,66.6761294 L174.539326,111.462312 C174.539326,112.946192 173.325243,114.160275 171.841364,114.160275 L140.275199,114.160275 L66.3510173,114.160275 Z" fill="url(#vc01gi4os__ha186j0dec)" fill-rule="nonzero" transform="translate(114 36)"/>
    <path fill="#C4C6CC" fill-rule="nonzero" d="M25.6117787 109.843534L25.6117787 120.635386 36.40363 120.635386 36.40363 122.793756 23.4534085 122.793756 23.4534085 109.843534z" transform="translate(114 36)"/>
    <path fill="#C4C6CC" fill-rule="nonzero" d="M170.222586 120.635386L181.014437 120.635386 181.014437 109.843534 183.172807 109.843534 183.172807 122.793756 170.222586 122.793756z" transform="translate(114 36)"/>
    <g fill="#C4C6CC" fill-rule="nonzero">
      <path transform="rotate(111 109.40828496 104.0083028)" d="M-0.307782077 2.17443377L4.00895844 2.17443377 4.00895844 4.33280403 -0.307782077 4.33280403z"/>
      <path transform="rotate(111 108.05812085 111.29186521)" d="M-0.308051873 10.8079855L4.00868864 10.8079855 4.00868864 12.9663557 -0.308051873 12.9663557z"/>
      <path transform="rotate(111 106.7083408 118.57526232)" d="M-0.307916975 19.4412673L4.00882354 19.4412673 4.00882354 21.5996376 -0.307916975 21.5996376z"/>
      <path transform="rotate(111 105.35851836 125.85888805)" d="M-0.307782077 28.074819L4.00895844 28.074819 4.00895844 30.2331893 -0.307782077 30.2331893z"/>
    </g>
    <g fill="#C4C6CC" fill-rule="nonzero">
      <path transform="rotate(148 69.52370639 51.76830753)" d="M0.812188107 0.177212681L2.97055836 0.177212681 2.97055836 4.4939532 0.812188107 4.4939532z"/>
      <path transform="rotate(148 71.99979008 60.40166372)" d="M0.81265829 8.81069371L2.97102855 8.81069371 2.97102855 13.1274342 0.81265829 13.1274342z"/>
      <path transform="rotate(148 74.4754122 69.03544446)" d="M0.812588882 17.4444445L2.97095914 17.4444445 2.97095914 21.761185 0.812588882 21.761185z"/>
      <path transform="rotate(148 76.95074448 77.66872392)" d="M0.812384575 26.0776558L2.97075483 26.0776558 2.97075483 30.3943963 0.812384575 30.3943963z"/>
      <path transform="rotate(148 79.42628817 86.30223495)" d="M0.812315166 34.7111368L2.97068542 34.7111368 2.97068542 39.0278773 0.812315166 39.0278773z"/>
    </g>
    <path fill="#C4C6CC" fill-rule="nonzero" d="M142.163773 6.241762169999999A2.15837026 2.15837026 0 1 0 142.163773 10.55850269A2.15837026 2.15837026 0 1 0 142.163773 6.241762169999999Z" transform="translate(114 36)"/>
    <path fill="#C4C6CC" fill-rule="nonzero" d="M86.0461459 40.77568624A2.15837026 2.15837026 0 1 0 86.0461459 45.092426759999995A2.15837026 2.15837026 0 1 0 86.0461459 40.77568624Z" transform="translate(114 36)"/>
  </g>
</svg>
