<?xml version="1.0" encoding="UTF-8"?>
<svg width="130px" height="105px" viewBox="0 0 130 105" version="1.1" xmlns="http://www.w3.org/2000/svg" xmlns:xlink="http://www.w3.org/1999/xlink">
    <!-- Generator: Sketch 57.1 (83088) - https://sketch.com -->
    <title>编组</title>
    <desc>Created with Sketch.</desc>
    <defs>
        <linearGradient x1="44.3453545%" y1="6.35814418%" x2="44.3453545%" y2="93.4118442%" id="linearGradient-1">
            <stop stop-color="#FBFCFD" offset="0%"></stop>
            <stop stop-color="#F5F7FA" offset="100%"></stop>
        </linearGradient>
        <linearGradient x1="55.701768%" y1="26.0865419%" x2="48.427328%" y2="77.7619316%" id="linearGradient-2">
            <stop stop-color="#EAECF0" offset="0%"></stop>
            <stop stop-color="#E6E7EB" offset="100%"></stop>
        </linearGradient>
        <linearGradient x1="55.7422509%" y1="26.0865419%" x2="48.4161619%" y2="77.7619316%" id="linearGradient-3">
            <stop stop-color="#F4F6FA" offset="0%"></stop>
            <stop stop-color="#F0F1F5" offset="100%"></stop>
        </linearGradient>
        <linearGradient x1="29.7524097%" y1="28.8452734%" x2="71.2240206%" y2="70.4077146%" id="linearGradient-4">
            <stop stop-color="#EAECF0" offset="0%"></stop>
            <stop stop-color="#DCDDE0" offset="100%"></stop>
        </linearGradient>
    </defs>
    <g id="4.作业" stroke="none" stroke-width="1" fill="none" fill-rule="evenodd">
        <g id="导出S4-导出中" transform="translate(-653.000000, -149.000000)">
            <g id="编组" transform="translate(654.000000, 113.746559)">
                <path d="M19.5698525,115.14566 C32.4239883,111.318541 50.9419265,109.617599 63.5225701,110.46807 C76.1032138,111.318541 86.4990734,114.204577 87.2568295,113.535653 C89.7683688,111.318541 95.1268254,110.363025 94.8533332,111.213496 C94.5798409,112.063967 91.1452876,114.720425 92.2392566,115.14566 C93.3332257,115.570896 104.546408,117.271838 109.195776,118.547544 C113.845145,119.823251 116.824413,121.098957 117.851168,121.098957 C118.877923,121.098957 120.450972,119.306024 127.180129,120.156496 C127.299063,120.481939 125.690508,120.59982 124.180766,121.595101 C122.671024,122.590381 121.611114,122.521953 121.611114,122.770389 C121.611114,123.018825 122.445727,122.440118 124.180766,123.910198 C125.915805,125.380279 129,125.850093 129,126.244787 C129,126.639481 125.093101,128.314995 118.549691,125.593306 C116.893404,124.904384 113.024668,130.879374 95.2476714,132.580316 C77.470675,134.281258 47.3865273,135.556964 47.3865273,135.556964 C47.3865273,135.556964 49.2014198,138.605067 51.8320577,139.489592 C51.9793745,139.801463 50.7885815,140.935898 45.6711903,139.662825 C40.5537991,138.389753 37.8142984,135.556964 37.8142984,135.556964 C37.8142984,135.556964 27.6950851,134.706493 23.8661936,133.856022 C20.037302,133.005551 15.661426,130.879374 12.6530112,130.454138 C9.64459643,130.028903 -4.03001619,127.902725 1.16633661,123.225135 C1.16633661,123.225135 6.71571661,118.97278 19.5698525,115.14566 Z" id="Fill-1" fill="url(#linearGradient-1)"></path>
                <polygon id="路径-6" fill="url(#linearGradient-2)" points="6.46699141 53.753441 6.46699141 119.651227 59 137.745127 59 71.4976319"></polygon>
                <polygon id="路径-6" fill="url(#linearGradient-3)" transform="translate(85.516504, 95.499284) scale(-1, 1) translate(-85.516504, -95.499284) " points="59 53.253441 59 119.151227 112.033009 137.745127 112.033009 71.4976319"></polygon>
                <polygon id="矩形" fill="url(#linearGradient-4)" transform="translate(59.500000, 53.753441) rotate(-315.000000) translate(-59.500000, -53.753441) " points="46.7487373 41.0021783 97 16.253441 72.0375664 66.9981141 22 91.253441"></polygon>
                <polygon id="路径-7" fill="#C4C6CC" points="26.2810105 47.1196751 78.603112 64.6343876 92.8540307 59.7790265 40.6377284 42"></polygon>
                <polygon id="路径-8" fill="#C9CBD1" points="78.603112 64.6343876 78.603112 75.9518978 92.8540307 70.3997358 92.8540307 59.7790265"></polygon>
                <polygon id="路径-9" fill="#C9CBD1" points="78.603112 75.9518978 79.7114645 76.4192072 80.3747237 75.2117924 81.930754 75.448584 82.4773361 74.4442923 84.0017201 74.8739953 84.544258 73.6159261 86.3802524 73.9488701 86.7039957 72.7961539 88.3220043 73.1063489 88.7180387 72.0022651 90.3135006 72.4635133 90.7078163 71.3072584 92.0388844 71.7865036 92.8540307 70.3997358"></polygon>
                <polygon id="路径-10备份" fill="#C4C6CC" points="96.6215306 106.727496 96.6215306 111.575832 107.017339 108.142857 107.017339 103.253441"></polygon>
                <polygon id="路径-10备份-2" fill="#C4C6CC" points="96.6215306 113.727496 96.6215306 118.575832 107.017339 115.142857 107.017339 110.253441"></polygon>
                <path d="M-0.156303613,102.728382 L1.74346134,103.353597 L2.05606857,102.403714 L0.156303613,101.7785 L-0.156303613,102.728382 Z M3.6432263,103.978811 L5.54299126,104.604026 L5.85559848,103.654143 L3.95583353,103.028929 L3.6432263,103.978811 Z M7.44275621,105.22924 L9.34252117,105.854454 L9.65512839,104.904572 L7.75536344,104.279358 L7.44275621,105.22924 Z M11.2422861,106.479669 L13.1420511,107.104883 L13.4546583,106.155001 L11.5548934,105.529786 L11.2422861,106.479669 Z M15.041816,107.730098 L16.941581,108.355312 L17.2541882,107.40543 L15.3544233,106.780215 L15.041816,107.730098 Z M18.841346,108.980527 L20.7411109,109.605741 L21.0537181,108.655859 L19.1539532,108.030644 L18.841346,108.980527 Z M22.6408759,110.230956 L24.5406408,110.85617 L24.853248,109.906288 L22.9534831,109.281073 L22.6408759,110.230956 Z M26.4404058,111.481385 L28.3401707,112.106599 L28.652778,111.156717 L26.753013,110.531502 L26.4404058,111.481385 Z" id="路径-10" fill="#979797" fill-rule="nonzero"></path>
                <path d="M92.9847967,84.3397119 L94.8542955,83.6290966 L94.4989879,82.6943472 L92.629489,83.4049624 L92.9847967,84.3397119 Z M96.7237943,82.9184813 L98.5932932,82.207866 L98.2379856,81.2731166 L96.3684867,81.9837319 L96.7237943,82.9184813 Z M100.462792,81.4972507 L102.332291,80.7866355 L101.976983,79.851886 L100.107484,80.5625013 L100.462792,81.4972507 Z M104.20179,80.0760202 L106.071289,79.3654049 L105.715981,78.4306555 L103.846482,79.1412708 L104.20179,80.0760202 Z M107.940787,78.6547896 L109.810286,77.9441744 L109.454979,77.0094249 L107.58548,77.7200402 L107.940787,78.6547896 Z M111.679785,77.2335591 L113.549284,76.5229438 L113.193976,75.5881944 L111.324477,76.2988097 L111.679785,77.2335591 Z M115.418783,75.8123285 L117.288282,75.1017133 L116.932974,74.1669638 L115.063475,74.8775791 L115.418783,75.8123285 Z M119.15778,74.391098 L120.599082,73.8432447 L120.243775,72.9084953 L118.802473,73.4563486 L119.15778,74.391098 Z" id="路径-11" fill="#979797" fill-rule="nonzero"></path>
            </g>
        </g>
    </g>
</svg>