<?xml version="1.0" encoding="UTF-8"?>
<svg width="159px" height="106px" viewBox="0 0 159 106" version="1.1" xmlns="http://www.w3.org/2000/svg" xmlns:xlink="http://www.w3.org/1999/xlink">
    <!-- Generator: Sketch 57.1 (83088) - https://sketch.com -->
    <defs>
        <linearGradient x1="51.9445544%" y1="48.756112%" x2="52.6331696%" y2="51.3631659%" id="linearGradient-1">
            <stop stop-color="#FBFCFD" offset="0%"></stop>
            <stop stop-color="#F0F2F5" offset="100%"></stop>
        </linearGradient>
        <linearGradient x1="50%" y1="1.17556896%" x2="50%" y2="94.7658656%" id="linearGradient-2">
            <stop stop-color="#EBEDF0" stop-opacity="0.991668488" offset="0%"></stop>
            <stop stop-color="#E1E3E6" offset="100%"></stop>
        </linearGradient>
        <linearGradient x1="50%" y1="0%" x2="50%" y2="99.1844383%" id="linearGradient-3">
            <stop stop-color="#F5F7FA" offset="0%"></stop>
            <stop stop-color="#F2F4F7" offset="100%"></stop>
        </linearGradient>
        <linearGradient x1="50%" y1="3.83189043%" x2="50%" y2="98.3556799%" id="linearGradient-4">
            <stop stop-color="#E1E2E6" offset="0%"></stop>
            <stop stop-color="#F7F9FC" offset="100%"></stop>
        </linearGradient>
        <linearGradient x1="50%" y1="0%" x2="50%" y2="99.2715372%" id="linearGradient-5">
            <stop stop-color="#FAFBFC" offset="0%"></stop>
            <stop stop-color="#EBEDF5" offset="100%"></stop>
        </linearGradient>
    </defs>
    <g id="4.作业" stroke="none" stroke-width="1" fill="none" fill-rule="evenodd">
        <g id="导入S1-用户须知" transform="translate(-634.000000, -159.000000)">
            <g id="搜索为空" transform="translate(469.000000, 96.000000)">
                <path d="M189.656777,145.566071 C205.400602,141.994093 228.081488,140.406547 243.490338,141.20032 C258.899188,141.994093 271.632102,144.687727 272.560206,144.063397 C275.636355,141.994093 282.199426,141.102278 281.864451,141.896051 C281.529476,142.689824 277.322814,145.169185 278.662714,145.566071 C280.002614,145.962958 293.736589,147.550504 299.431164,148.741163 C305.125739,149.931822 308.774766,151.122482 310.032342,151.122482 C311.289917,151.122482 313.216597,149.449078 321.458511,150.242851 C321.604182,150.546598 319.634013,150.656621 317.784872,151.585549 C315.935731,152.514477 314.637546,152.450612 314.637546,152.682485 C314.637546,152.914358 315.659785,152.374232 317.784872,153.746307 C319.909959,155.118382 323.6875,155.556876 323.6875,155.925256 C323.6875,156.293637 318.902306,157.85745 310.887896,155.317207 C308.859266,154.674214 304.120814,160.250871 282.347439,161.838417 C260.574063,163.425963 223.726812,164.616622 223.726812,164.616622 C223.726812,164.616622 225.949704,167.461518 229.171726,168.287075 C229.35216,168.578154 227.89367,169.63696 221.625857,168.448759 C215.358045,167.260558 212.002687,164.616622 212.002687,164.616622 C212.002687,164.616622 199.608612,163.822849 194.918962,163.029076 C190.229312,162.235303 184.869712,160.250871 181.184987,159.853984 C177.500262,159.457098 160.751511,157.472665 167.116036,153.106914 C167.116036,153.106914 173.912951,149.13805 189.656777,145.566071 Z" id="Fill-1" fill="url(#linearGradient-1)"></path>
                <path d="M176.125,148.375 L176.125,157.75 L185.5,157.75 L185.5,159.625 L174.25,159.625 L174.25,148.375 L176.125,148.375 Z" id="形状结合" fill="#C4C6CC"></path>
                <path d="M299.875,148 L299.875,157.375 L309.25,157.375 L309.25,159.25 L298,159.25 L298,148 L299.875,148 Z" id="形状结合" fill="#C4C6CC" transform="translate(303.625000, 153.625000) scale(-1, 1) translate(-303.625000, -153.625000) "></path>
                <path d="M176.25,63 L176.25,72.374 L185.625,72.375 L185.625,74.25 L176.25,74.249 L176.25,74.25 L174.375,74.25 L174.375,63 L176.25,63 Z" id="形状结合备份" fill="#C4C6CC" transform="translate(180.000000, 68.625000) rotate(-270.000000) translate(-180.000000, -68.625000) "></path>
                <path d="M300.25,63 L300.25,72.374 L309.625,72.375 L309.625,74.25 L300.25,74.249 L300.25,74.25 L298.375,74.25 L298.375,63 L300.25,63 Z" id="形状结合备份-2" fill="#C4C6CC" transform="translate(304.000000, 68.625000) rotate(-180.000000) translate(-304.000000, -68.625000) "></path>
                <rect id="矩形-2" fill="url(#linearGradient-2)" x="181" y="69" width="122" height="84" rx="1"></rect>
                <rect id="矩形" stroke="url(#linearGradient-4)" fill="url(#linearGradient-3)" x="187.5" y="75.5" width="109" height="71"></rect>
                <circle id="椭圆形" fill="#C4C6CC" cx="167.5" cy="121.5" r="1.5"></circle>
                <path d="M200.394313,87.9990242 C213.5016,85.9996747 225.804862,85 237.304097,85 C248.803333,85 264.91401,85.9996747 285.636128,87.9990242 C285.636128,113.510374 285.636128,127.780046 285.636128,130.808041 C285.636128,133.836035 275.968373,137.206911 256.632862,140.920669 L200.394313,139.345557 L200.394313,87.9990242 Z" id="路径-3备份" fill="#DCDEE5"></path>
                <path d="M200.394313,86.0597179 C213.5016,84.0603685 225.804862,83.0606938 237.304097,83.0606938 C248.803333,83.0606938 264.91401,84.0603685 285.636128,86.0597179 C285.636128,111.571068 285.636128,125.84074 285.636128,128.868734 C285.636128,131.896729 275.968373,135.267605 256.632862,138.981363 L200.394313,137.40625 L200.394313,86.0597179 Z" id="路径-3" fill="#FFFFFF"></path>
                <circle id="椭圆形" fill="#C4C6CC" cx="258.5" cy="121.5" r="1"></circle>
                <circle id="椭圆形" fill="#DCDEE5" cx="242.5" cy="88" r="2.5"></circle>
                <circle id="椭圆形备份" fill="#F0F1F5" cx="242.5" cy="87.5" r="2.5"></circle>
                <path d="M256.632862,138.981363 C261.204871,136.586224 264.606544,134.389504 266.837883,132.391203 C269.069221,130.392903 271.400367,127.669272 273.831321,124.22031 L285.636128,128.868734 C285.452378,131.04877 281.873285,133.0844 274.898849,134.975625 C267.924414,136.86685 261.835751,138.202096 256.632862,138.981363 Z" id="路径-5" fill="url(#linearGradient-5)"></path>
                <text id="NOTICE" font-family="MicrosoftYaHei-Bold, Microsoft YaHei" font-size="18" font-weight="bold" fill="#C4C6CC">
                    <tspan x="208.038086" y="118">NOTICE</tspan>
                </text>
                <circle id="椭圆形" fill="#C4C6CC" cx="285" cy="143" r="1"></circle>
                <circle id="椭圆形" fill="#C4C6CC" cx="308" cy="84" r="1"></circle>
                <g id="编组" transform="translate(183.000000, 71.000000)">
                    <circle id="椭圆形" fill="#C4C6CC" cx="2" cy="2.5" r="2"></circle>
                    <circle id="椭圆形" fill="#FAFBFD" cx="2" cy="2" r="2"></circle>
                </g>
                <g id="编组备份-2" transform="translate(183.000000, 147.000000)">
                    <circle id="椭圆形" fill="#C4C6CC" cx="2" cy="2.5" r="2"></circle>
                    <circle id="椭圆形" fill="#F0F1F5" cx="2" cy="2" r="2"></circle>
                </g>
                <g id="编组备份-3" transform="translate(297.000000, 147.000000)">
                    <circle id="椭圆形" fill="#C4C6CC" cx="2" cy="2.5" r="2"></circle>
                    <circle id="椭圆形" fill="#F0F1F5" cx="2" cy="2" r="2"></circle>
                </g>
                <g id="编组备份" transform="translate(297.000000, 71.000000)">
                    <circle id="椭圆形" fill="#C4C6CC" cx="2" cy="2.5" r="2"></circle>
                    <circle id="椭圆形" fill="#FAFBFD" cx="2" cy="2" r="2"></circle>
                </g>
            </g>
        </g>
    </g>
</svg>