<?xml version="1.0" encoding="utf-8"?>
<!-- Generator: Adobe Illustrator 22.1.0, SVG Export Plug-In . SVG Version: 6.00 Build 0)  -->
<svg version="1.1" id="图层_1" xmlns="http://www.w3.org/2000/svg" xmlns:xlink="http://www.w3.org/1999/xlink" x="0px" y="0px"
	 viewBox="0 0 48 48" style="enable-background:new 0 0 48 48;" xml:space="preserve">
<style type="text/css">
	.st0{fill:#55C7F7;}
	.st1{fill:#7ECF3B;}
	.st2{fill:#F95F5D;}
	.st3{fill:#FDAF42;}
	.st4{fill:none;stroke:#DCDEE5;}
</style>
<polygon id="路径" class="st0" points="0,0 48,0 48,16.9 0,16.9 "/>
<polygon id="路径_1_" class="st1" points="0,31.1 48,31.1 48,48 0,48 "/>
<polygon id="路径_2_" class="st2" points="16.9,21.2 31.1,21.2 31.1,28.2 16.9,28.2 "/>
<path id="形状" class="st2" d="M0,15.5v16.9h48V15.5H0z M33.8,30.6H14.3V17.8h19.5V30.6z"/>
<path id="形状_1_" class="st3" d="M16.9,0h14.1v18.1H16.9V0z M16.9,30.3h14.1V48H16.9V30.3z M16.9,20.2h14.1v8.1H16.9V20.2z"/>
<rect id="矩形" x="0.5" y="0.5" class="st4" width="47" height="47"/>
</svg>
