<?xml version="1.0" encoding="UTF-8"?>
<svg width="64px" height="64px" viewBox="0 0 64 64" version="1.1" xmlns="http://www.w3.org/2000/svg" xmlns:xlink="http://www.w3.org/1999/xlink">
    <title>shell</title>
    <defs>
        <linearGradient x1="50%" y1="0%" x2="50%" y2="100%" id="linearGradient-1">
            <stop stop-color="#F7F8FA" offset="0%"></stop>
            <stop stop-color="#F0F2F5" offset="99.9416965%"></stop>
        </linearGradient>
        <linearGradient x1="50.8618335%" y1="0.861833479%" x2="50.8618335%" y2="99.1381665%" id="linearGradient-2">
            <stop stop-color="#BEBFC2" offset="0%"></stop>
            <stop stop-color="#D7D8DB" offset="100%"></stop>
        </linearGradient>
        <path d="M1.28,0 L30.72,0 C31.42692,0 32,0.57308 32,1.28 L32,30.72 C32,31.42692 31.42692,32 30.72,32 L1.28,32 C0.57308,32 0,31.42692 0,30.72 L0,1.28 C0,0.57308 0.57308,0 1.28,0 Z" id="path-3"></path>
        <filter x="-20.3%" y="-17.2%" width="140.6%" height="140.6%" filterUnits="objectBoundingBox" id="filter-4">
            <feOffset dx="0" dy="1" in="SourceAlpha" result="shadowOffsetOuter1"></feOffset>
            <feGaussianBlur stdDeviation="2" in="shadowOffsetOuter1" result="shadowBlurOuter1"></feGaussianBlur>
            <feColorMatrix values="0 0 0 0 0   0 0 0 0 0   0 0 0 0 0  0 0 0 0.1 0" type="matrix" in="shadowBlurOuter1"></feColorMatrix>
        </filter>
        <filter x="-18.8%" y="-15.6%" width="137.5%" height="137.5%" filterUnits="objectBoundingBox" id="filter-5">
            <feGaussianBlur stdDeviation="1.5" in="SourceAlpha" result="shadowBlurInner1"></feGaussianBlur>
            <feOffset dx="0" dy="1" in="shadowBlurInner1" result="shadowOffsetInner1"></feOffset>
            <feComposite in="shadowOffsetInner1" in2="SourceAlpha" operator="arithmetic" k2="-1" k3="1" result="shadowInnerInner1"></feComposite>
            <feColorMatrix values="0 0 0 0 0   0 0 0 0 0   0 0 0 0 0  0 0 0 0.16 0" type="matrix" in="shadowInnerInner1"></feColorMatrix>
        </filter>
    </defs>
    <g id="🦶-脚本" stroke="none" stroke-width="1" fill="none" fill-rule="evenodd">
        <g id="LOGO" transform="translate(-131.000000, -125.000000)">
            <g id="shell" transform="translate(131.000000, 125.000000)">
                <circle id="椭圆形" fill="url(#linearGradient-1)" cx="32" cy="32" r="32"></circle>
                <g id="shell-(1)" transform="translate(16.000000, 16.000000)">
                    <g id="形状">
                        <use fill="black" fill-opacity="1" filter="url(#filter-4)" xlink:href="#path-3"></use>
                        <use fill="url(#linearGradient-2)" fill-rule="evenodd" xlink:href="#path-3"></use>
                        <use fill="black" fill-opacity="1" filter="url(#filter-5)" xlink:href="#path-3"></use>
                    </g>
                    <path d="M5.75998333,8.4496 L5.75998333,11.3468 C5.75894061,11.4558385 5.8084186,11.5592253 5.894,11.6268 L10.9636,15.88 L5.894,20.1348 C5.81075249,20.2042151 5.76183796,20.3064246 5.75998333,20.4148 L5.75998333,23.312 C5.7602636,23.4552378 5.84361698,23.5853078 5.97364615,23.6453873 C6.10367531,23.7054667 6.25675096,23.6846379 6.366,23.592 L15.228,16.1616 C15.3116736,16.090994 15.3599533,15.9870827 15.3599533,15.8776 C15.3599533,15.7681173 15.3116736,15.664206 15.228,15.5936 L6.366,8.1696 C6.25675096,8.07696213 6.10367531,8.05613325 5.97364615,8.11621274 C5.84361698,8.17629222 5.7602636,8.30636223 5.75998333,8.4496 L5.75998333,8.4496 Z" id="路径" fill="#F3F5F7" fill-rule="nonzero"></path>
                    <path d="M16.3828,20.48 C16.1669489,20.4854594 15.9959732,20.6641174 15.9999303,20.88 L15.9999303,23.28 C15.9959732,23.4958826 16.1669489,23.6745406 16.3828,23.68 L25.8572,23.68 C26.0730511,23.6745406 26.2440268,23.4958826 26.2400697,23.28 L26.2400697,20.88 C26.2440268,20.6641174 26.0730511,20.4854594 25.8572,20.48 L16.3828,20.48 L16.3828,20.48 Z" id="路径" fill="#F3F5F7" fill-rule="nonzero"></path>
                </g>
            </g>
        </g>
    </g>
</svg>